<svg xmlns="http://www.w3.org/2000/svg" viewBox="0 0 56 56" width="56" height="56" role="img" aria-label="Voices From the Holy Land">
  <circle cx="28" cy="28" r="26" fill="none" stroke="#AF5320" stroke-width="1.6"/>
  <g transform="translate(28,28)">
    <path d="M-13,14 C -9,2 -2,-7 13,-14" fill="none" stroke="#AF5320" stroke-width="1.8" stroke-linecap="round"/>
    <g fill="#AF5320">
      <ellipse cx="-8" cy="8" rx="4.6" ry="1.9" transform="rotate(28 -8 8)"/>
      <ellipse cx="-3" cy="2" rx="4.6" ry="1.9" transform="rotate(12 -3 2)"/>
      <ellipse cx="3" cy="-4" rx="4.6" ry="1.9" transform="rotate(-6 3 -4)"/>
      <ellipse cx="8" cy="-9" rx="4.6" ry="1.9" transform="rotate(-22 8 -9)"/>
      <ellipse cx="-6" cy="13" rx="4" ry="1.7" transform="rotate(58 -6 13)"/>
      <ellipse cx="0" cy="5" rx="4" ry="1.7" transform="rotate(48 0 5)"/>
      <circle cx="13" cy="-14" r="2.3"/>
    </g>
  </g>
</svg>
